<svg width="12" height="12" viewBox="0 0 12 12" fill="none" xmlns="http://www.w3.org/2000/svg">
<path d="M8.25235 5.03863L8.25214 5.03846L8.21584 5.0805L8.21105 5.08605L8.21086 5.08586L5.71087 7.58585C5.71087 7.58585 5.71087 7.58586 5.71086 7.58586C5.54219 7.75459 5.27832 7.76981 5.0923 7.63175L5.08638 7.62735L5.08656 7.62715L5.04451 7.59085L5.03895 7.58605L5.03914 7.58586L3.78912 6.33586L3.85984 6.26515L3.78912 6.33586C3.60363 6.15036 3.60363 5.84965 3.78912 5.66414C3.78912 5.66414 3.78912 5.66414 3.78912 5.66414M8.25235 5.03863L4.34811 5.69855C4.2013 5.5896 3.99297 5.6017 3.85984 5.73485L3.78912 5.66414M8.25235 5.03863L8.25675 5.0327C8.39481 4.84667 8.37958 4.58283 8.21086 4.41412M8.25235 5.03863L8.21086 4.41412M3.78912 5.66414C3.95783 5.49542 4.22167 5.48019 4.4077 5.61825L4.41362 5.62264L4.41344 5.62285L4.4555 5.65915L4.46107 5.66395L4.46087 5.66414L5.375 6.57823M3.78912 5.66414L5.375 6.57823M5.375 6.57823L7.53914 4.41412C7.72464 4.22863 8.02536 4.22863 8.21086 4.41412C8.21086 4.41412 8.21086 4.41412 8.21086 4.41412M5.375 6.57823L8.17645 4.97311C8.2854 4.8263 8.2733 4.61797 8.14015 4.48484L8.21086 4.41412M11.1 6C11.1 3.18335 8.81663 0.9 6 0.9C3.18335 0.9 0.9 3.18335 0.9 6C0.9 8.81663 3.18335 11.1 6 11.1C8.81663 11.1 11.1 8.81663 11.1 6ZM1.85 6C1.85 3.70802 3.70802 1.85 6 1.85C8.29197 1.85 10.15 3.70802 10.15 6C10.15 8.29197 8.29197 10.15 6 10.15C3.70802 10.15 1.85 8.29197 1.85 6Z" fill="#988E8C" stroke="#988E8C" stroke-width="0.2"/>
</svg>
