<svg width="10" height="20" viewBox="0 0 10 20" fill="none" xmlns="http://www.w3.org/2000/svg">
<mask id="path-1-inside-1_3494_18716" fill="white">
<path d="M8.17432 3.32083H10V0.140833C9.68503 0.0975 8.60178 0 7.34022 0C4.70794 0 2.90476 1.65583 2.90476 4.69917V7.5H0V11.055H2.90476V20H6.46613V11.0558H9.2534L9.69586 7.50083H6.4653V5.05167C6.46613 4.02417 6.74277 3.32083 8.17432 3.32083Z"/>
</mask>
<path d="M8.17432 3.32083H10V0.140833C9.68503 0.0975 8.60178 0 7.34022 0C4.70794 0 2.90476 1.65583 2.90476 4.69917V7.5H0V11.055H2.90476V20H6.46613V11.0558H9.2534L9.69586 7.50083H6.4653V5.05167C6.46613 4.02417 6.74277 3.32083 8.17432 3.32083Z" fill="#A4A4A4"/>
<path d="M10 3.32083V24.6542H31.3333V3.32083H10ZM10 0.140833H31.3333V-18.4585L12.9076 -20.9934L10 0.140833ZM2.90476 7.5V28.8333H24.2381V7.5H2.90476ZM0 7.5V-13.8333H-21.3333V7.5H0ZM0 11.055H-21.3333V32.3883H0V11.055ZM2.90476 11.055H24.2381V-10.2783H2.90476V11.055ZM2.90476 20H-18.4286V41.3333H2.90476V20ZM6.46613 20V41.3333H27.7995V20H6.46613ZM6.46613 11.0558V-10.2775H-14.8672V11.0558H6.46613ZM9.2534 11.0558V32.3892H28.0961L30.4234 13.6907L9.2534 11.0558ZM9.69586 7.50083L30.8659 10.1357L33.849 -13.8325H9.69586V7.50083ZM6.4653 7.50083H-14.868V28.8342H6.4653V7.50083ZM6.4653 5.05167L-14.868 5.03437L-14.868 5.04302V5.05167H6.4653ZM8.17432 24.6542H10V-18.0125H8.17432V24.6542ZM31.3333 3.32083V0.140833H-11.3333V3.32083H31.3333ZM12.9076 -20.9934C11.499 -21.1872 9.43361 -21.3333 7.34022 -21.3333V21.3333C7.38395 21.3333 7.44097 21.3342 7.5064 21.3365C7.57136 21.3387 7.62837 21.3418 7.66945 21.3444C7.71312 21.3472 7.71749 21.3481 7.67415 21.3441C7.65208 21.3421 7.60159 21.3373 7.52517 21.3289C7.48617 21.3247 7.43257 21.3186 7.36645 21.3106C7.30274 21.3029 7.20895 21.2911 7.0924 21.2751L12.9076 -20.9934ZM7.34022 -21.3333C1.50943 -21.3333 -5.52095 -19.4078 -11.0883 -13.7366C-16.6449 -8.07634 -18.4286 -1.04943 -18.4286 4.69917H24.2381C24.2381 7.40443 23.356 12.0818 19.3591 16.1533C15.3514 20.2357 10.5387 21.3333 7.34022 21.3333V-21.3333ZM-18.4286 4.69917V7.5H24.2381V4.69917H-18.4286ZM2.90476 -13.8333H0V28.8333H2.90476V-13.8333ZM-21.3333 7.5V11.055H21.3333V7.5H-21.3333ZM0 32.3883H2.90476V-10.2783H0V32.3883ZM-18.4286 11.055V20H24.2381V11.055H-18.4286ZM2.90476 41.3333H6.46613V-1.33333H2.90476V41.3333ZM27.7995 20V11.0558H-14.8672V20H27.7995ZM6.46613 32.3892H9.2534V-10.2775H6.46613V32.3892ZM30.4234 13.6907L30.8659 10.1357L-11.4741 4.86597L-11.9166 8.42097L30.4234 13.6907ZM9.69586 -13.8325H6.4653V28.8342H9.69586V-13.8325ZM27.7986 7.50083V5.05167H-14.868V7.50083H27.7986ZM27.7986 5.06897C27.7984 5.38366 28.0212 11.5156 23.3141 17.2859C17.7801 24.0699 10.5063 24.6542 8.17432 24.6542V-18.0125C4.41077 -18.0125 -3.71709 -17.0765 -9.7475 -9.68402C-14.951 -3.3052 -14.8669 3.69217 -14.868 5.03437L27.7986 5.06897Z" fill="#A4A4A4" mask="url(#path-1-inside-1_3494_18716)"/>
</svg>
