<svg width="22" height="22" viewBox="0 0 22 22" fill="none" xmlns="http://www.w3.org/2000/svg">
<mask id="path-1-outside-1_3494_18722" maskUnits="userSpaceOnUse" x="0" y="0" width="22" height="22" fill="black">
<rect fill="white" width="22" height="22"/>
<path d="M21.189 6.95075C21.1416 5.87529 20.9676 5.13593 20.7185 4.49526C20.4614 3.81521 20.0659 3.20635 19.5478 2.70021C19.0415 2.1862 18.4286 1.78678 17.7563 1.53379C17.1117 1.28466 16.3761 1.11074 15.3004 1.06333C14.2167 1.01189 13.8727 1 11.1242 1C8.37561 1 8.03158 1.01189 6.9519 1.05931C5.87624 1.10673 5.13673 1.28079 4.49609 1.52977C3.81575 1.78678 3.20678 2.18218 2.70054 2.70021C2.18643 3.20635 1.78709 3.81922 1.53389 4.4914C1.28471 5.13593 1.11076 5.87128 1.06334 6.94673C1.0119 8.03021 1 8.37418 1 11.1222C1 13.8702 1.0119 14.2142 1.05932 15.2937C1.10675 16.3691 1.28085 17.1085 1.53003 17.7491C1.78709 18.4292 2.18643 19.038 2.70054 19.5442C3.20678 20.0582 3.81977 20.4576 4.49208 20.7106C5.13673 20.9597 5.87222 21.1337 6.94804 21.1811C8.02756 21.2286 8.37175 21.2404 11.1203 21.2404C13.8689 21.2404 14.2129 21.2286 15.2926 21.1811C16.3682 21.1337 17.1077 20.9597 17.7484 20.7106C19.1089 20.1847 20.1846 19.1092 20.7106 17.7491C20.9596 17.1046 21.1337 16.3691 21.1811 15.2937C21.2286 14.2142 21.2404 13.8702 21.2404 11.1222C21.2404 8.37418 21.2364 8.03021 21.189 6.95075ZM19.366 15.2146C19.3224 16.2031 19.1563 16.7369 19.0179 17.0927C18.6777 17.9745 17.9778 18.6743 17.0958 19.0144C16.7399 19.1528 16.2022 19.3188 15.2173 19.3622C14.1495 19.4098 13.8293 19.4215 11.1282 19.4215C8.42705 19.4215 8.1028 19.4098 7.03887 19.3622C6.05019 19.3188 5.5163 19.1528 5.16037 19.0144C4.72148 18.8522 4.32199 18.5952 3.99773 18.2591C3.66158 17.9309 3.40452 17.5355 3.24231 17.0967C3.1039 16.7409 2.93783 16.2031 2.89442 15.2186C2.84684 14.151 2.8351 13.8307 2.8351 11.1301C2.8351 8.42947 2.84684 8.10528 2.89442 7.04172C2.93783 6.05322 3.1039 5.51943 3.24231 5.16358C3.40452 4.72462 3.66158 4.32536 4.00175 4.00101C4.32987 3.66492 4.72534 3.40791 5.16438 3.24589C5.52031 3.1075 6.05822 2.94147 7.04289 2.89791C8.11067 2.8505 8.43107 2.8386 11.132 2.8386C13.8372 2.8386 14.1574 2.8505 15.2213 2.89791C16.21 2.94147 16.7439 3.1075 17.0999 3.24589C17.5387 3.40791 17.9382 3.66492 18.2625 4.00101C18.5986 4.32922 18.8557 4.72462 19.0179 5.16358C19.1563 5.51943 19.3224 6.05708 19.366 7.04172C19.4134 8.10929 19.4253 8.42947 19.4253 11.1301C19.4253 13.8307 19.4134 14.147 19.366 15.2146Z"/>
</mask>
<path d="M21.189 6.95075C21.1416 5.87529 20.9676 5.13593 20.7185 4.49526C20.4614 3.81521 20.0659 3.20635 19.5478 2.70021C19.0415 2.1862 18.4286 1.78678 17.7563 1.53379C17.1117 1.28466 16.3761 1.11074 15.3004 1.06333C14.2167 1.01189 13.8727 1 11.1242 1C8.37561 1 8.03158 1.01189 6.9519 1.05931C5.87624 1.10673 5.13673 1.28079 4.49609 1.52977C3.81575 1.78678 3.20678 2.18218 2.70054 2.70021C2.18643 3.20635 1.78709 3.81922 1.53389 4.4914C1.28471 5.13593 1.11076 5.87128 1.06334 6.94673C1.0119 8.03021 1 8.37418 1 11.1222C1 13.8702 1.0119 14.2142 1.05932 15.2937C1.10675 16.3691 1.28085 17.1085 1.53003 17.7491C1.78709 18.4292 2.18643 19.038 2.70054 19.5442C3.20678 20.0582 3.81977 20.4576 4.49208 20.7106C5.13673 20.9597 5.87222 21.1337 6.94804 21.1811C8.02756 21.2286 8.37175 21.2404 11.1203 21.2404C13.8689 21.2404 14.2129 21.2286 15.2926 21.1811C16.3682 21.1337 17.1077 20.9597 17.7484 20.7106C19.1089 20.1847 20.1846 19.1092 20.7106 17.7491C20.9596 17.1046 21.1337 16.3691 21.1811 15.2937C21.2286 14.2142 21.2404 13.8702 21.2404 11.1222C21.2404 8.37418 21.2364 8.03021 21.189 6.95075ZM19.366 15.2146C19.3224 16.2031 19.1563 16.7369 19.0179 17.0927C18.6777 17.9745 17.9778 18.6743 17.0958 19.0144C16.7399 19.1528 16.2022 19.3188 15.2173 19.3622C14.1495 19.4098 13.8293 19.4215 11.1282 19.4215C8.42705 19.4215 8.1028 19.4098 7.03887 19.3622C6.05019 19.3188 5.5163 19.1528 5.16037 19.0144C4.72148 18.8522 4.32199 18.5952 3.99773 18.2591C3.66158 17.9309 3.40452 17.5355 3.24231 17.0967C3.1039 16.7409 2.93783 16.2031 2.89442 15.2186C2.84684 14.151 2.8351 13.8307 2.8351 11.1301C2.8351 8.42947 2.84684 8.10528 2.89442 7.04172C2.93783 6.05322 3.1039 5.51943 3.24231 5.16358C3.40452 4.72462 3.66158 4.32536 4.00175 4.00101C4.32987 3.66492 4.72534 3.40791 5.16438 3.24589C5.52031 3.1075 6.05822 2.94147 7.04289 2.89791C8.11067 2.8505 8.43107 2.8386 11.132 2.8386C13.8372 2.8386 14.1574 2.8505 15.2213 2.89791C16.21 2.94147 16.7439 3.1075 17.0999 3.24589C17.5387 3.40791 17.9382 3.66492 18.2625 4.00101C18.5986 4.32922 18.8557 4.72462 19.0179 5.16358C19.1563 5.51943 19.3224 6.05708 19.366 7.04172C19.4134 8.10929 19.4253 8.42947 19.4253 11.1301C19.4253 13.8307 19.4134 14.147 19.366 15.2146Z" fill="#A4A4A4"/>
<path d="M21.189 6.95075C21.1416 5.87529 20.9676 5.13593 20.7185 4.49526C20.4614 3.81521 20.0659 3.20635 19.5478 2.70021C19.0415 2.1862 18.4286 1.78678 17.7563 1.53379C17.1117 1.28466 16.3761 1.11074 15.3004 1.06333C14.2167 1.01189 13.8727 1 11.1242 1C8.37561 1 8.03158 1.01189 6.9519 1.05931C5.87624 1.10673 5.13673 1.28079 4.49609 1.52977C3.81575 1.78678 3.20678 2.18218 2.70054 2.70021C2.18643 3.20635 1.78709 3.81922 1.53389 4.4914C1.28471 5.13593 1.11076 5.87128 1.06334 6.94673C1.0119 8.03021 1 8.37418 1 11.1222C1 13.8702 1.0119 14.2142 1.05932 15.2937C1.10675 16.3691 1.28085 17.1085 1.53003 17.7491C1.78709 18.4292 2.18643 19.038 2.70054 19.5442C3.20678 20.0582 3.81977 20.4576 4.49208 20.7106C5.13673 20.9597 5.87222 21.1337 6.94804 21.1811C8.02756 21.2286 8.37175 21.2404 11.1203 21.2404C13.8689 21.2404 14.2129 21.2286 15.2926 21.1811C16.3682 21.1337 17.1077 20.9597 17.7484 20.7106C19.1089 20.1847 20.1846 19.1092 20.7106 17.7491C20.9596 17.1046 21.1337 16.3691 21.1811 15.2937C21.2286 14.2142 21.2404 13.8702 21.2404 11.1222C21.2404 8.37418 21.2364 8.03021 21.189 6.95075ZM19.366 15.2146C19.3224 16.2031 19.1563 16.7369 19.0179 17.0927C18.6777 17.9745 17.9778 18.6743 17.0958 19.0144C16.7399 19.1528 16.2022 19.3188 15.2173 19.3622C14.1495 19.4098 13.8293 19.4215 11.1282 19.4215C8.42705 19.4215 8.1028 19.4098 7.03887 19.3622C6.05019 19.3188 5.5163 19.1528 5.16037 19.0144C4.72148 18.8522 4.32199 18.5952 3.99773 18.2591C3.66158 17.9309 3.40452 17.5355 3.24231 17.0967C3.1039 16.7409 2.93783 16.2031 2.89442 15.2186C2.84684 14.151 2.8351 13.8307 2.8351 11.1301C2.8351 8.42947 2.84684 8.10528 2.89442 7.04172C2.93783 6.05322 3.1039 5.51943 3.24231 5.16358C3.40452 4.72462 3.66158 4.32536 4.00175 4.00101C4.32987 3.66492 4.72534 3.40791 5.16438 3.24589C5.52031 3.1075 6.05822 2.94147 7.04289 2.89791C8.11067 2.8505 8.43107 2.8386 11.132 2.8386C13.8372 2.8386 14.1574 2.8505 15.2213 2.89791C16.21 2.94147 16.7439 3.1075 17.0999 3.24589C17.5387 3.40791 17.9382 3.66492 18.2625 4.00101C18.5986 4.32922 18.8557 4.72462 19.0179 5.16358C19.1563 5.51943 19.3224 6.05708 19.366 7.04172C19.4134 8.10929 19.4253 8.42947 19.4253 11.1301C19.4253 13.8307 19.4134 14.147 19.366 15.2146Z" stroke="#A4A4A4" stroke-width="0.8" mask="url(#path-1-outside-1_3494_18722)"/>
<mask id="path-2-outside-2_3494_18722" maskUnits="userSpaceOnUse" x="4.92346" y="4.92383" width="12" height="12" fill="black">
<rect fill="white" x="4.92346" y="4.92383" width="12" height="12"/>
<path d="M11.124 5.92383C8.2529 5.92383 5.92346 8.25266 5.92346 11.1233C5.92346 13.994 8.2529 16.3228 11.124 16.3228C13.9952 16.3228 16.3245 13.994 16.3245 11.1233C16.3245 8.25266 13.9952 5.92383 11.124 5.92383ZM11.124 14.4961C9.26137 14.4961 7.75053 12.9857 7.75053 11.1233C7.75053 9.26093 9.26137 7.75054 11.124 7.75054C12.9867 7.75054 14.4974 9.26093 14.4974 11.1233C14.4974 12.9857 12.9867 14.4961 11.124 14.4961V14.4961Z"/>
</mask>
<path d="M11.124 5.92383C8.2529 5.92383 5.92346 8.25266 5.92346 11.1233C5.92346 13.994 8.2529 16.3228 11.124 16.3228C13.9952 16.3228 16.3245 13.994 16.3245 11.1233C16.3245 8.25266 13.9952 5.92383 11.124 5.92383ZM11.124 14.4961C9.26137 14.4961 7.75053 12.9857 7.75053 11.1233C7.75053 9.26093 9.26137 7.75054 11.124 7.75054C12.9867 7.75054 14.4974 9.26093 14.4974 11.1233C14.4974 12.9857 12.9867 14.4961 11.124 14.4961V14.4961Z" fill="#A4A4A4"/>
<path d="M11.124 5.92383C8.2529 5.92383 5.92346 8.25266 5.92346 11.1233C5.92346 13.994 8.2529 16.3228 11.124 16.3228C13.9952 16.3228 16.3245 13.994 16.3245 11.1233C16.3245 8.25266 13.9952 5.92383 11.124 5.92383ZM11.124 14.4961C9.26137 14.4961 7.75053 12.9857 7.75053 11.1233C7.75053 9.26093 9.26137 7.75054 11.124 7.75054C12.9867 7.75054 14.4974 9.26093 14.4974 11.1233C14.4974 12.9857 12.9867 14.4961 11.124 14.4961V14.4961Z" stroke="#A4A4A4" stroke-width="0.8" mask="url(#path-2-outside-2_3494_18722)"/>
<mask id="path-3-outside-3_3494_18722" maskUnits="userSpaceOnUse" x="14.3158" y="3.50391" width="4" height="4" fill="black">
<rect fill="white" x="14.3158" y="3.50391" width="4" height="4"/>
<path d="M17.7436 5.71775C17.7436 6.38807 17.2001 6.93159 16.5296 6.93159C15.8593 6.93159 15.3158 6.38807 15.3158 5.71775C15.3158 5.04727 15.8593 4.50391 16.5296 4.50391C17.2001 4.50391 17.7436 5.04727 17.7436 5.71775V5.71775Z"/>
</mask>
<path d="M17.7436 5.71775C17.7436 6.38807 17.2001 6.93159 16.5296 6.93159C15.8593 6.93159 15.3158 6.38807 15.3158 5.71775C15.3158 5.04727 15.8593 4.50391 16.5296 4.50391C17.2001 4.50391 17.7436 5.04727 17.7436 5.71775V5.71775Z" fill="#A4A4A4"/>
<path d="M17.7436 5.71775C17.7436 6.38807 17.2001 6.93159 16.5296 6.93159C15.8593 6.93159 15.3158 6.38807 15.3158 5.71775C15.3158 5.04727 15.8593 4.50391 16.5296 4.50391C17.2001 4.50391 17.7436 5.04727 17.7436 5.71775V5.71775Z" stroke="#A4A4A4" stroke-width="0.8" mask="url(#path-3-outside-3_3494_18722)"/>
</svg>
