<svg width="60" height="27" viewBox="0 0 60 27" fill="none" xmlns="http://www.w3.org/2000/svg">
<path d="M4.573 9.503C5.00367 9.503 5.36633 9.41233 5.661 9.231C5.95567 9.03833 6.103 8.78333 6.103 8.466C6.103 8.20533 5.95567 7.99 5.661 7.82C5.36633 7.63867 4.998 7.50267 4.556 7.412C4.12533 7.32133 3.655 7.191 3.145 7.021C2.635 6.851 2.159 6.65267 1.717 6.426C1.28633 6.19933 0.923667 5.848 0.629 5.372C0.334333 4.88467 0.187 4.30667 0.187 3.638C0.187 2.618 0.578 1.75667 1.36 1.054C2.15333 0.351334 3.19033 0 4.471 0C5.74033 0 6.77733 0.260667 7.582 0.782C8.38667 1.292 8.789 1.87567 8.789 2.533C8.789 2.86167 8.653 3.162 8.381 3.434C8.12033 3.69467 7.78033 3.825 7.361 3.825C6.97567 3.825 6.50533 3.638 5.95 3.264C5.39467 2.87867 4.862 2.686 4.352 2.686C3.98933 2.686 3.70033 2.75967 3.485 2.907C3.26967 3.05433 3.162 3.25267 3.162 3.502C3.162 3.72867 3.30933 3.927 3.604 4.097C3.89867 4.25567 4.267 4.386 4.709 4.488C5.16233 4.59 5.644 4.73733 6.154 4.93C6.67533 5.12267 7.157 5.34367 7.599 5.593C8.05233 5.831 8.42633 6.19367 8.721 6.681C9.01567 7.157 9.163 7.718 9.163 8.364C9.163 9.50867 8.721 10.4437 7.837 11.169C6.953 11.883 5.85367 12.24 4.539 12.24C3.37167 12.24 2.32333 11.9623 1.394 11.407C0.464667 10.8403 0 10.234 0 9.588C0 9.16867 0.130333 8.823 0.391 8.551C0.663 8.26767 1.00867 8.126 1.428 8.126C1.65467 8.126 1.853 8.177 2.023 8.279C2.20433 8.36967 2.363 8.483 2.499 8.619C2.64633 8.74367 2.79933 8.874 2.958 9.01C3.128 9.146 3.349 9.265 3.621 9.367C3.893 9.45767 4.21033 9.503 4.573 9.503Z" fill="#C6CCD4"/>
<path d="M23.8284 1.683V10.727C23.8284 11.1577 23.6811 11.5203 23.3864 11.815C23.1031 12.0983 22.7461 12.24 22.3154 12.24C21.8734 12.24 21.5108 12.0983 21.2274 11.815C20.9441 11.5317 20.8024 11.169 20.8024 10.727V4.607L19.0004 6.987C18.6378 7.463 18.1731 7.701 17.6064 7.701C17.0284 7.701 16.5581 7.463 16.1954 6.987L14.3934 4.607V10.727C14.3934 11.169 14.2518 11.5317 13.9684 11.815C13.6964 12.0983 13.3338 12.24 12.8804 12.24C12.4498 12.24 12.0871 12.0983 11.7924 11.815C11.5091 11.5203 11.3674 11.1577 11.3674 10.727V1.683C11.3674 1.25233 11.5091 0.895333 11.7924 0.612C12.0871 0.317333 12.4498 0.17 12.8804 0.17H13.5774C14.0648 0.17 14.4898 0.396667 14.8524 0.85L17.6064 4.301L20.3434 0.85C20.7061 0.396667 21.1311 0.17 21.6184 0.17H22.3154C22.7461 0.17 23.1031 0.317333 23.3864 0.612C23.6811 0.895333 23.8284 1.25233 23.8284 1.683Z" fill="#C6CCD4"/>
<path d="M30.3832 0.17H32.2533C33.0126 0.17 33.5226 0.561 33.7833 1.343L36.7073 10.03C36.7979 10.3133 36.8433 10.5627 36.8433 10.778C36.8433 11.186 36.7016 11.5317 36.4183 11.815C36.1349 12.0983 35.7836 12.24 35.3643 12.24C34.6389 12.24 34.1572 11.8717 33.9193 11.135L33.3413 9.35H29.2952L28.7172 11.135C28.4792 11.8717 27.9976 12.24 27.2722 12.24C26.8529 12.24 26.5016 12.0983 26.2183 11.815C25.9349 11.5317 25.7932 11.186 25.7932 10.778C25.7932 10.5627 25.8386 10.3133 25.9292 10.03L28.8533 1.343C29.1139 0.561 29.6239 0.17 30.3832 0.17ZM30.1623 6.698H32.4573L31.3692 3.23H31.2672L30.1623 6.698Z" fill="#C6CCD4"/>
<path d="M41.8018 2.975V5.542H43.9268C44.2895 5.542 44.5955 5.41733 44.8448 5.168C45.0941 4.91867 45.2188 4.61833 45.2188 4.267C45.2188 3.90433 45.0941 3.59833 44.8448 3.349C44.5955 3.09967 44.2895 2.975 43.9268 2.975H41.8018ZM40.3058 0.17H43.9608C45.1395 0.17 46.1425 0.578 46.9698 1.394C47.7971 2.21 48.2108 3.20167 48.2108 4.369C48.2108 5.80833 47.5648 6.936 46.2728 7.752L47.8878 9.86C48.0691 10.098 48.1598 10.3927 48.1598 10.744C48.1598 11.1293 48.0125 11.475 47.7178 11.781C47.4345 12.087 47.0831 12.24 46.6638 12.24C46.1425 12.24 45.7401 12.0417 45.4568 11.645L43.0088 8.33H41.8018V10.744C41.8018 11.1633 41.6601 11.5203 41.3768 11.815C41.0935 12.0983 40.7365 12.24 40.3058 12.24C39.8865 12.24 39.5295 12.0927 39.2348 11.798C38.9515 11.5033 38.8098 11.152 38.8098 10.744V1.632C38.8098 1.21267 38.9401 0.867 39.2008 0.595001C39.4728 0.311667 39.8411 0.17 40.3058 0.17Z" fill="#C6CCD4"/>
<path d="M57.5793 0.17C58.0099 0.17 58.3613 0.300333 58.6333 0.561C58.9166 0.810333 59.0583 1.15033 59.0583 1.581C59.0583 2.00033 58.9166 2.34033 58.6333 2.601C58.3499 2.86167 57.9986 2.992 57.5793 2.992H55.5563V10.744C55.5563 11.152 55.4089 11.5033 55.1143 11.798C54.8196 12.0927 54.4626 12.24 54.0433 12.24C53.6353 12.24 53.2839 12.0927 52.9893 11.798C52.6946 11.5033 52.5473 11.152 52.5473 10.744V2.992H50.5753C50.1559 2.992 49.7989 2.86167 49.5043 2.601C49.2096 2.34033 49.0623 2.00033 49.0623 1.581C49.0623 1.16167 49.2096 0.821667 49.5043 0.561C49.7989 0.300333 50.1559 0.17 50.5753 0.17H57.5793Z" fill="#C6CCD4"/>
<path d="M7.88818 26.0701V16.3201H10.4682V20.0401H11.3082L12.5382 17.8801C12.8982 17.2501 13.2932 16.8051 13.7232 16.5451C14.1532 16.2751 14.6682 16.1401 15.2682 16.1401C15.4182 16.1401 15.5732 16.1501 15.7332 16.1701C15.9032 16.1901 16.0482 16.2301 16.1682 16.2901L15.7482 18.6001C15.6582 18.5701 15.5732 18.5551 15.4932 18.5551C15.4132 18.5451 15.3482 18.5401 15.2982 18.5401C15.0682 18.5401 14.8782 18.6001 14.7282 18.7201C14.5882 18.8301 14.4382 19.0201 14.2782 19.2901L13.3332 20.9101L16.4382 26.0701H13.7382L11.3082 22.1101H10.4682V26.0701H7.88818Z" fill="#C6CCD4"/>
<path d="M19.9736 21.3301L19.8086 22.0051H21.6086L21.4436 21.3301C21.3236 20.8601 21.2036 20.3501 21.0836 19.8001C20.9636 19.2501 20.8436 18.7301 20.7236 18.2401H20.6636C20.5536 18.7401 20.4386 19.2651 20.3186 19.8151C20.2086 20.3551 20.0936 20.8601 19.9736 21.3301ZM16.2236 26.0701L19.1936 16.3201H22.3136L25.2836 26.0701H22.5536L22.0736 24.0001H19.3436L18.8636 26.0701H16.2236Z" fill="#C6CCD4"/>
<path d="M26.2134 26.0701V16.3201H29.7834C30.3134 16.3201 30.8184 16.3751 31.2984 16.4851C31.7784 16.5851 32.1984 16.7651 32.5584 17.0251C32.9184 17.2751 33.2034 17.6101 33.4134 18.0301C33.6334 18.4401 33.7434 18.9501 33.7434 19.5601C33.7434 20.1601 33.6334 20.6751 33.4134 21.1051C33.2034 21.5351 32.9184 21.8901 32.5584 22.1701C32.1984 22.4401 31.7834 22.6451 31.3134 22.7851C30.8434 22.9151 30.3534 22.9801 29.8434 22.9801H28.7934V26.0701H26.2134ZM28.7934 20.9401H29.7234C30.2334 20.9401 30.6084 20.8201 30.8484 20.5801C31.0984 20.3401 31.2234 20.0001 31.2234 19.5601C31.2234 19.1201 31.0884 18.8101 30.8184 18.6301C30.5484 18.4501 30.1634 18.3601 29.6634 18.3601H28.7934V20.9401Z" fill="#C6CCD4"/>
<path d="M37.0529 26.0701V18.4801H34.4729V16.3201H42.2129V18.4801H39.6329V26.0701H37.0529Z" fill="#C6CCD4"/>
<path d="M45.5791 21.3301L45.4141 22.0051H47.2141L47.0491 21.3301C46.9291 20.8601 46.8091 20.3501 46.6891 19.8001C46.5691 19.2501 46.4491 18.7301 46.3291 18.2401H46.2691C46.1591 18.7401 46.0441 19.2651 45.9241 19.8151C45.8141 20.3551 45.6991 20.8601 45.5791 21.3301ZM41.8291 26.0701L44.7991 16.3201H47.9191L50.8891 26.0701H48.1591L47.6791 24.0001H44.9491L44.4691 26.0701H41.8291Z" fill="#C6CCD4"/>
</svg>
