<svg width="22" height="22" viewBox="0 0 22 22" fill="none" xmlns="http://www.w3.org/2000/svg">
<g clip-path="url(#clip0_3494_18718)">
<path d="M21.0639 16.1512L21.0645 16.1491C21.284 15.3474 21.3962 14.0703 21.4507 12.9564C21.4775 12.4072 21.4898 11.9106 21.4954 11.5513C21.4982 11.3717 21.4994 11.2267 21.4998 11.1269C21.5 11.0771 21.5 11.0385 21.5 11.0125L21.5 10.9833L21.4999 10.9761L21.4999 10.9744V10.9741L21.4999 10.974V10.9715V10.9715V10.9711L21.4999 10.9694L21.4999 10.9622L21.4998 10.9331C21.4997 10.9072 21.4995 10.8688 21.499 10.8191C21.4982 10.7197 21.4964 10.5754 21.4929 10.3966C21.4859 10.0388 21.4719 9.54417 21.4439 8.99687C21.3873 7.88831 21.2753 6.61372 21.0637 5.80863C20.856 5.03942 20.2483 4.43168 19.4791 4.2242C19.0995 4.12452 18.3911 4.04167 17.5007 3.97775C16.6231 3.91474 15.6088 3.87251 14.6436 3.84428C13.6793 3.81607 12.768 3.80196 12.0976 3.7949C11.7624 3.79137 11.4877 3.78961 11.2969 3.78872C11.2015 3.78828 11.1271 3.78806 11.0766 3.78795L11.0192 3.78786L11.0047 3.78785L11.0011 3.78784L11.0002 3.78784H11L11 3.28785L10.9999 3.78784H10.9997L10.9988 3.78784L10.9952 3.78785L10.9807 3.78786L10.9235 3.78796C10.8732 3.78807 10.799 3.7883 10.7038 3.78876C10.5135 3.78967 10.2395 3.79151 9.90509 3.79518C9.23612 3.80251 8.32664 3.81719 7.3636 3.84651C6.39974 3.87585 5.3863 3.91974 4.50817 3.98522C3.6162 4.05173 2.90567 4.13792 2.52285 4.2416L2.52215 4.24179C1.75202 4.44917 1.14364 5.05749 0.936003 5.82743C0.724707 6.62254 0.612687 7.89654 0.555975 9.00815C0.527996 9.55658 0.513986 10.0529 0.506981 10.4121C0.503481 10.5916 0.501735 10.7366 0.500864 10.8365C0.500428 10.8864 0.500212 10.925 0.500104 10.951L0.500011 10.9803L0.499999 10.9875L0.499998 10.9892L0.499998 10.9896V10.9896V10.9896V10.9897L0.499998 10.99L0.499999 10.9917L0.500011 10.9989L0.500104 11.0281C0.500212 11.0539 0.500428 11.0923 0.500863 11.142C0.501734 11.2414 0.50348 11.3858 0.506981 11.5646C0.513985 11.9224 0.527994 12.417 0.555973 12.9643C0.612646 14.0729 0.724597 15.3475 0.936186 16.1525C1.14401 16.9227 1.77086 17.5483 2.52179 17.7554C2.90169 17.8549 3.60959 17.9376 4.49905 18.0015C5.37669 18.0645 6.39098 18.1067 7.3561 18.135C8.32043 18.1632 9.23172 18.1773 9.90218 18.1844C10.2373 18.1879 10.512 18.1896 10.7028 18.1905C10.7982 18.191 10.8726 18.1912 10.9231 18.1913L10.9805 18.1914L10.995 18.1914L10.9987 18.1914L10.9995 18.1914L10.9997 18.1914L10.9998 18.6914L10.9998 18.1914L11 18.1914L11.0009 18.1914L11.0045 18.1914L11.019 18.1914L11.0764 18.1913C11.1269 18.1912 11.2013 18.191 11.2966 18.1905C11.4874 18.1896 11.7621 18.1877 12.0972 18.1841C12.7676 18.1767 13.6788 18.1621 14.643 18.1327C15.608 18.1034 16.622 18.0595 17.4993 17.994C18.3908 17.9275 19.0982 17.8413 19.4758 17.738L19.4777 17.7375C20.248 17.53 20.8566 16.9215 21.0639 16.1512Z" fill="#A4A4A4" stroke="#A4A4A4" stroke-width="0.999996"/>
<path d="M8.80725 7.69074L14.5337 10.9889L8.80725 14.2871V7.69074Z" fill="white"/>
</g>
<defs>
<clipPath id="clip0_3494_18718">
<rect width="22" height="22" fill="white" transform="matrix(1 0 0 -1 0 22)"/>
</clipPath>
</defs>
</svg>
