<svg width="68" height="15" viewBox="0 0 68 15" fill="none" xmlns="http://www.w3.org/2000/svg">
<path d="M14.8366 14H11.9766V4.66L8.21664 14H6.97664L3.21664 4.66V14H0.376641V0.659999H4.35664L7.59664 8.72L10.8366 0.659999H14.8366V14ZM25.766 14H23.226V13C22.5327 13.8267 21.5127 14.24 20.166 14.24C19.2993 14.24 18.5193 13.96 17.826 13.4C17.146 12.8267 16.806 12.04 16.806 11.04C16.806 10 17.1393 9.22 17.806 8.7C18.486 8.18 19.2727 7.92 20.166 7.92C21.5393 7.92 22.5593 8.31333 23.226 9.1V7.8C23.226 7.30667 23.0327 6.91333 22.646 6.62C22.2593 6.32667 21.746 6.18 21.106 6.18C20.0527 6.18 19.1127 6.56 18.286 7.32L17.326 5.62C18.4727 4.60667 19.8793 4.1 21.546 4.1C22.786 4.1 23.7993 4.38667 24.586 4.96C25.3727 5.53333 25.766 6.46667 25.766 7.76V14ZM21.186 12.52C22.1327 12.52 22.8127 12.24 23.226 11.68V10.48C22.8127 9.92 22.1327 9.64 21.186 9.64C20.666 9.64 20.2327 9.77333 19.886 10.04C19.5393 10.2933 19.366 10.6467 19.366 11.1C19.366 11.54 19.5393 11.8867 19.886 12.14C20.2327 12.3933 20.666 12.52 21.186 12.52ZM35.7454 4.34V6.56H30.8254V14H28.2854V4.34H35.7454ZM39.9074 14H37.3674V4.34H39.9074V7.92H43.9074V4.34H46.4474V14H43.9074V10.14H39.9074V14ZM51.409 14H48.969V4.34H51.509V10.18L55.489 4.34H58.049V14H55.509V7.94L51.409 14ZM64.9105 14H62.3505V6.56H59.6505V4.34H67.6105V6.56H64.9105V14Z" fill="#C6CCD4"/>
</svg>
