<svg width="78" height="11" viewBox="0 0 78 11" fill="none" xmlns="http://www.w3.org/2000/svg">
<path d="M2.33459 0.994999V3.8C2.33459 5.01 2.94459 5.615 4.16459 5.615C4.88459 5.615 5.51959 5.505 6.06959 5.285V0.994999H8.19959V11H6.06959V7.16C5.33959 7.38 4.61959 7.49 3.90959 7.49C2.66959 7.49 1.73959 7.165 1.11959 6.515C0.49959 5.855 0.18959 4.95 0.18959 3.8V0.994999H2.33459ZM17.2658 11H10.1858V0.994999H17.2658V2.87H12.3158V4.985H17.1608V6.86H12.3158V9.125H17.2658V11ZM21.0609 11H18.9309V0.994999H23.6109C24.6609 0.994999 25.4809 1.305 26.0709 1.925C26.6709 2.535 26.9709 3.3 26.9709 4.22C26.9709 5.13 26.6709 5.895 26.0709 6.515C25.4709 7.135 24.6509 7.445 23.6109 7.445H21.0609V11ZM23.3259 5.57C23.7559 5.57 24.1059 5.45 24.3759 5.21C24.6559 4.96 24.7959 4.63 24.7959 4.22C24.7959 3.81 24.6559 3.485 24.3759 3.245C24.1059 2.995 23.7559 2.87 23.3259 2.87H21.0609V5.57H23.3259ZM35.3713 11H28.2913V0.994999H35.3713V2.87H30.4213V4.985H35.2663V6.86H30.4213V9.125H35.3713V11ZM46.0364 11H43.8914V2.87H39.1664V11H37.0364V0.994999H46.0364V11ZM57.3381 11H54.9081L54.2931 9.305H50.0031L49.3731 11H46.9431L50.8131 0.994999H53.4831L57.3381 11ZM53.7081 7.43L52.1481 3.125L50.5881 7.43H53.7081ZM67.337 11H64.787L62.282 7.34L59.762 11H57.227L60.857 5.87L57.452 0.994999H59.987L62.282 4.415L64.547 0.994999H67.112L63.707 5.855L67.337 11ZM77.6115 11H75.1815L74.5665 9.305H70.2765L69.6465 11H67.2165L71.0865 0.994999H73.7565L77.6115 11ZM73.9815 7.43L72.4215 3.125L70.8615 7.43H73.9815Z" fill="#C6CCD4"/>
</svg>
